<svg width="157" height="56" viewBox="0 0 157 56" fill="none" xmlns="http://www.w3.org/2000/svg">
<rect width="157" height="56" fill="white"/>
<path d="M24.8691 39H20.7207V27.0117C20.7207 25.5234 20.4395 24.416 19.877 23.6895C19.3145 22.9512 18.4355 22.582 17.2402 22.582C15.6465 22.582 14.4746 23.1035 13.7246 24.1465C12.9863 25.1777 12.6172 26.9004 12.6172 29.3145V39H8.48633V19.5586H11.7207L12.3008 22.1074H12.5117C13.0508 21.1816 13.8301 20.4668 14.8496 19.9629C15.8809 19.459 17.0117 19.207 18.2422 19.207C21.2305 19.207 23.2109 20.2266 24.1836 22.2656H24.4648C25.0391 21.3047 25.8477 20.5547 26.8906 20.0156C27.9336 19.4766 29.1289 19.207 30.4766 19.207C32.7969 19.207 34.4844 19.793 35.5391 20.9648C36.6055 22.1367 37.1387 23.9238 37.1387 26.3262V39H33.0078V27.0117C33.0078 25.5234 32.7207 24.416 32.1465 23.6895C31.584 22.9512 30.7051 22.582 29.5098 22.582C27.9043 22.582 26.7266 23.0859 25.9766 24.0938C25.2383 25.0898 24.8691 26.625 24.8691 28.6992V39ZM39.9512 19.5586H44.4512L48.4062 30.5801C49.0039 32.1504 49.4023 33.627 49.6016 35.0098H49.7422C49.8477 34.3652 50.041 33.5859 50.3223 32.6719C50.6035 31.7461 52.0918 27.375 54.7871 19.5586H59.252L50.9375 41.584C49.4258 45.627 46.9062 47.6484 43.3789 47.6484C42.4648 47.6484 41.5742 47.5488 40.707 47.3496V44.0801C41.3281 44.2207 42.0371 44.291 42.834 44.291C44.8262 44.291 46.2266 43.1367 47.0352 40.8281L47.7559 39L39.9512 19.5586ZM92.7734 39H88.6426V19.5586H92.7734V39ZM88.3965 14.4082C88.3965 13.6699 88.5957 13.1016 88.9941 12.7031C89.4043 12.3047 89.9844 12.1055 90.7344 12.1055C91.4609 12.1055 92.0234 12.3047 92.4219 12.7031C92.832 13.1016 93.0371 13.6699 93.0371 14.4082C93.0371 15.1113 92.832 15.668 92.4219 16.0781C92.0234 16.4766 91.4609 16.6758 90.7344 16.6758C89.9844 16.6758 89.4043 16.4766 88.9941 16.0781C88.5957 15.668 88.3965 15.1113 88.3965 14.4082ZM110.861 39L110.035 36.293H109.895C108.957 37.4766 108.014 38.2852 107.064 38.7188C106.115 39.1406 104.896 39.3516 103.408 39.3516C101.498 39.3516 100.004 38.8359 98.9258 37.8047C97.8594 36.7734 97.3262 35.3145 97.3262 33.4277C97.3262 31.4238 98.0703 29.9121 99.5586 28.8926C101.047 27.873 103.314 27.3164 106.361 27.2227L109.719 27.1172V26.0801C109.719 24.8379 109.426 23.9121 108.84 23.3027C108.266 22.6816 107.369 22.3711 106.15 22.3711C105.154 22.3711 104.199 22.5176 103.285 22.8105C102.371 23.1035 101.492 23.4492 100.648 23.8477L99.3125 20.8945C100.367 20.3438 101.521 19.9277 102.775 19.6465C104.029 19.3535 105.213 19.207 106.326 19.207C108.799 19.207 110.662 19.7461 111.916 20.8242C113.182 21.9023 113.814 23.5957 113.814 25.9043V39H110.861ZM104.709 36.1875C106.209 36.1875 107.41 35.7715 108.312 34.9395C109.227 34.0957 109.684 32.918 109.684 31.4062V29.7188L107.188 29.8242C105.242 29.8945 103.824 30.2227 102.934 30.8086C102.055 31.3828 101.615 32.2676 101.615 33.4629C101.615 34.3301 101.873 35.0039 102.389 35.4844C102.904 35.9531 103.678 36.1875 104.709 36.1875ZM129.441 19.207C130.273 19.207 130.959 19.2656 131.498 19.3828L131.094 23.2324C130.508 23.0918 129.898 23.0215 129.266 23.0215C127.613 23.0215 126.271 23.5605 125.24 24.6387C124.221 25.7168 123.711 27.1172 123.711 28.8398V39H119.58V19.5586H122.814L123.359 22.9863H123.57C124.215 21.8262 125.053 20.9062 126.084 20.2266C127.127 19.5469 128.246 19.207 129.441 19.207ZM132.166 19.5586H136.666L140.621 30.5801C141.219 32.1504 141.617 33.627 141.816 35.0098H141.957C142.062 34.3652 142.256 33.5859 142.537 32.6719C142.818 31.7461 144.307 27.375 147.002 19.5586H151.467L143.152 41.584C141.641 45.627 139.121 47.6484 135.594 47.6484C134.68 47.6484 133.789 47.5488 132.922 47.3496V44.0801C133.543 44.2207 134.252 44.291 135.049 44.291C137.041 44.291 138.441 43.1367 139.25 40.8281L139.971 39L132.166 19.5586Z" fill="#939B62"/>
<path d="M83.5449 25.9043C83.5449 30.1465 82.3672 33.3926 80.0117 35.6426C77.6562 37.8809 74.2637 39 69.834 39H62.6445V13.3008H70.5898C74.6797 13.3008 77.8613 14.4023 80.1348 16.6055C82.4082 18.8086 83.5449 21.9082 83.5449 25.9043ZM79.1152 26.0449C79.1152 19.8926 76.2383 16.8164 70.4844 16.8164H66.8457V35.4668H69.834C76.0215 35.4668 79.1152 32.3262 79.1152 26.0449Z" fill="#FF7B54"/>
</svg>
